PathFileType	4	(X/Y/Z)	Patient4_TMGait_0pt2_03_left_16.trc.trc
DataRate	CameraRate	NumFrames	NumMarkers	Units	OrigDataRate	OrigDataStartFrame	OrigNumFrames
48.109965635739	48.109965635739	4	33	mm	48.109965635739	106	       141
Frame#	Time	Sacral			L.Shoulder			Chest			R.Shoulder			Neck			R.ASIS			L.ASIS			R.Thigh.Superior			R.Thigh.Lateral			R.Thigh.Inferior			R.Patella			L.Thigh.Superior			L.Thigh.Lateral			L.Thigh.Inferior			L.Patella			L.Shank.Superior			L.Shank.Lateral			L.Shank.Inferior			R.Shank.Superior			R.Shank.Lateral			R.Shank.Inferior			R.Heel			R.Midfoot.Superior			R.Midfoot.Lateral			R.Toe			L.Heel			L.Midfoot.Lateral			L.Midfoot.Superior			L.Toe			L.Elbow			L.Wrist			R.Elbow			R.Wrist			
		X1	Y1	Z1	X2	Y2	Z2	X3	Y3	Z3	X4	Y4	Z4	X5	Y5	Z5	X6	Y6	Z6	X7	Y7	Z7	X8	Y8	Z8	X9	Y9	Z9	X10	Y10	Z10	X11	Y11	Z11	X12	Y12	Z12	X13	Y13	Z13	X14	Y14	Z14	X15	Y15	Z15	X16	Y16	Z16	X17	Y17	Z17	X18	Y18	Z18	X19	Y19	Z19	X20	Y20	Z20	X21	Y21	Z21	X22	Y22	Z22	X23	Y23	Z23	X24	Y24	Z24	X25	Y25	Z25	X26	Y26	Z26	X27	Y27	Z27	X28	Y28	Z28	X29	Y29	Z29	X30	Y30	Z30	X31	Y31	Z31	X32	Y32	Z32	X33	Y33	Z33	

106	35.532500000000	803.435463070325	998.824486578691	603.947596837968	942.370422152021	1424.668774506059	398.447494880703	1068.603848175288	1362.326212598489	543.431524029112	1011.491330377586	1432.874406612900	728.485176736365	939.027023853936	1488.809306129845	557.449798926772	1045.667506606361	930.487322878366	686.474221887241	994.443732553306	961.603731493713	417.892378245717	1080.659427170859	728.165463245999	636.155541286767	1009.383992806286	613.687018326999	698.380067186271	1072.704533820291	567.825701822996	603.861016019253	1071.878522531542	475.353463415070	604.272304354252	1082.838134692644	780.559956529207	438.467088946797	1029.130220450933	643.673709089482	352.070102080229	1142.093407606535	592.376948115209	408.761527457356	1158.404560300461	508.016454482958	394.366577399592	1102.775960751005	437.260352377833	381.999922389923	972.152645867831	371.801190382715	330.360548944094	988.613774970256	238.271653282611	373.324330789982	1029.060865396461	387.696158423655	610.289925527658	952.031151227578	290.634182507900	676.582786857263	967.399658964132	196.433604164133	604.060593502998	809.564823908314	43.769511032041	581.886826104918	982.479764310593	95.223943018109	607.802566008404	896.361990708783	36.762263934450	652.233805663812	1103.963452908535	42.639319166157	630.366233086084	818.217215213221	129.752351834922	406.786885476362	882.079310777836	106.274195007272	322.137698023348	982.695482146439	137.350629784692	343.460751727681	1083.824754865708	50.274646900699	304.037693730868	827.990213830712	1085.731967647574	309.518362688880	801.911496299111	827.402335266947	319.777605752979	1099.956716180433	1091.457000086756	850.193319639378	1282.915896447156	908.224858562701	825.919549510989	
107	35.553285714286	803.029283485178	1000.970219453837	606.477248524580	937.994812636070	1427.423084657543	401.154175324420	1066.630881662723	1364.899767907732	543.936694739175	1012.052194239639	1434.873160916164	729.912442749459	936.631133755819	1490.567174700628	560.467616060041	1045.472446889068	931.619742482223	686.379104320500	992.230304033139	964.228326534039	418.477594320670	1077.071829449178	728.245857671793	636.196475332705	1004.666882710516	614.747406213873	699.208890174541	1066.671723022351	568.043154441152	604.444684465700	1064.679152196718	476.203766728589	605.006878817796	1079.970478644324	782.948891011085	438.720993315561	1026.380469300202	646.373157904636	351.708395202686	1138.919171698813	595.069362523174	408.436805289464	1156.457519817144	512.199487705464	393.697823877787	1103.776328884933	440.759705081473	380.866125465213	976.814601710762	369.472846799469	329.014114507074	1000.139996677028	236.738569317194	371.193895933944	1022.602696258023	388.630310352885	611.059258224341	946.350761773097	291.070750323504	677.352295566604	962.314393749818	197.057745156571	604.526897652335	805.328435266235	43.855780578505	581.978711256789	978.304843962032	95.204032824697	607.908792630559	892.161643552728	36.737930358923	652.290034871880	1099.758436831178	42.559466056446	630.366566770525	835.947984926511	120.312590860851	404.983020666774	900.239697994046	100.130204713814	319.829767711952	999.364899501787	135.322571042010	340.722610827300	1103.840413332384	52.952519375930	300.328056608233	814.392713545233	1092.871358318850	313.067178123647	781.413340070265	835.433156627807	327.799945879947	1116.818496816931	1098.556223906416	850.199587275479	1315.759940685454	934.461410894927	817.707301457624	
108	35.574071428571	802.686343408774	1003.299045293099	608.755771677340	934.012776131128	1430.367734818947	403.748400385077	1064.875373959960	1367.484600559107	544.340259468687	1012.803131893057	1436.959747627092	731.150650775311	934.529242513138	1492.436943109819	563.320148332939	1045.255933743997	932.861119811028	686.009875680073	990.002905474086	966.962562310200	418.805723008282	1073.161722912050	728.360213547385	636.104166708073	999.454290226163	615.978836529963	700.015794284403	1060.062941312003	568.313182807629	605.062523326153	1056.808461878105	477.225399936417	605.852308406293	1076.522234581119	784.840912496063	438.421037936891	1022.270777517122	648.677822608191	351.074232022226	1134.263712631744	597.025831330164	407.645943891841	1152.894450477671	515.940790530782	392.785739612232	1103.539138003910	443.934634550219	379.583654458113	981.061383700790	366.242899151339	327.154650710355	1011.770716683043	234.740268655461	368.816438354765	1015.672309794291	389.740877880332	611.934322192099	940.245203751969	291.595021964245	678.165667378463	957.003687940115	197.771862481280	605.040913149904	801.065794224625	43.928140616972	582.060799801476	974.101748705995	95.194261151968	608.024051669110	887.939544366125	36.710879340656	652.340379622055	1095.529673819528	42.522848491647	630.362114042165	854.520570210279	110.025693642312	402.575639610873	919.526354184203	93.089909548628	317.220807304066	1016.843690764191	132.779211150873	337.863270532812	1124.932402393216	55.547392200011	297.157180840003	801.937623513360	1100.278854714882	316.382865188421	763.749827268458	843.639705959268	335.538297270108	1132.688578940554	1106.488253258218	849.962177486154	1345.431690560036	963.358603864439	808.617464405860	
109	35.594857142857	802.360446753668	1005.618758605094	610.791772017780	930.410223508879	1433.316635587440	406.198163469667	1063.322570081842	1369.906540042906	544.628054943465	1013.712164031773	1438.939478330247	732.200088075919	932.715651973205	1494.269963655663	565.968244555315	1045.008114740233	934.080337995923	685.405566574495	987.735077899317	969.615012550163	418.906936190714	1069.091738090863	728.453642504170	635.906662266456	993.984374780092	617.267276229660	700.783083160472	1053.165331455888	568.577335831952	605.694612141817	1048.607296461512	478.317136238302	606.768352930601	1072.618851528677	786.161517649316	437.642641798487	1017.050622903194	650.473807666567	350.251419108413	1128.442785378858	598.215311808873	406.486488241135	1148.018979711852	519.134294009390	391.736134634887	1102.245231547527	446.704829120531	378.259224944375	984.936115174136	362.356827521751	324.932127567435	1023.220804908201	232.533932441018	366.357963692264	1008.541807394055	390.929937230966	612.874740197919	933.914118997436	292.154333530265	678.988025235507	951.582857049732	198.515291487908	605.575697090934	796.790235416161	43.984755134030	582.130062359888	969.882496002912	95.196113236102	608.148698110985	883.703554473996	36.683797802284	652.383029714117	1091.286548986495	42.515701317813	630.354219423707	873.411231329258	99.594586475740	399.744250207565	939.370788389198	85.697770083383	314.499303467773	1034.616167726274	130.034373441511	335.066989273524	1146.375906582316	58.106905118393	294.735616045751	790.715524323832	1107.614407050619	319.438478747300	748.814658492462	851.598768945871	342.846114858727	1147.508956925226	1114.866737615676	849.455698001482	1371.541487726273	994.187826290100	798.831363238126	
